HIERARCHY
ROOT Pelvis
{
	OFFSET 0.000000 0.000000 0.000000
	CHANNELS 6 Xposition Yposition Zposition Xrotation Yrotation Zrotation
	JOINT LeftUpLeg_virtual
	{
		OFFSET 0.000000 0.000000 0.000000
		CHANNELS 3 Xrotation Yrotation Zrotation
		JOINT LeftUpLeg
		{
			OFFSET 18.735201 -5.666702 -4.541200
			CHANNELS 3 Xrotation Yrotation Zrotation
			JOINT LeftLeg
			{
				OFFSET -0.021200 -31.938179 0.493100
				CHANNELS 3 Xrotation Yrotation Zrotation
				JOINT LeftFoot
				{
					OFFSET 0.021200 -31.938179 -4.336299
					CHANNELS 3 Xrotation Yrotation Zrotation
					JOINT LeftToeBase
					{
						OFFSET 0.943001 -26.722000 15.023500
						CHANNELS 3 Xrotation Yrotation Zrotation
						End Site
						{
							OFFSET 0 0 0
						}
					}
				}
			}
		}
	}
	JOINT RightUpLeg_virtual
	{
		OFFSET 0.000000 0.000000 0.000000
		CHANNELS 3 Xrotation Yrotation Zrotation
		JOINT RightUpLeg
		{
			OFFSET -18.735201 -5.666702 -4.541200
			CHANNELS 3 Xrotation Yrotation Zrotation
			JOINT RightLeg
			{
				OFFSET 0.018946 -31.938133 0.493100
				CHANNELS 3 Xrotation Yrotation Zrotation
				JOINT RightFoot
				{
					OFFSET -0.018946 -31.938126 -4.336299
					CHANNELS 3 Xrotation Yrotation Zrotation
					JOINT RightToeBase
					{
						OFFSET -0.943001 -26.722004 15.023500
						CHANNELS 3 Xrotation Yrotation Zrotation
						End Site
						{
							OFFSET 0 0 0
						}
					}
				}
			}
		}
	}
	JOINT Hips_virtual
	{
		OFFSET 0.000000 0.000000 0.000000
		CHANNELS 3 Xrotation Yrotation Zrotation
		JOINT Hips
		{
			OFFSET -0.000000 -0.000000 -0.000000
			CHANNELS 3 Xrotation Yrotation Zrotation
			JOINT Spine
			{
				OFFSET 0.000000 10.199997 -0.299500
				CHANNELS 3 Xrotation Yrotation Zrotation
				JOINT Spine1
				{
					OFFSET 0.000000 11.900002 -1.516600
					CHANNELS 3 Xrotation Yrotation Zrotation
					JOINT Spine2
					{
						OFFSET 0.000000 13.600006 -2.842500
						CHANNELS 3 Xrotation Yrotation Zrotation
						JOINT Neck_virtual
						{
							OFFSET 0.000000 0.000000 0.000000
							CHANNELS 3 Xrotation Yrotation Zrotation
							JOINT Neck
							{
								OFFSET 0.000000 9.624100 -2.890100
								CHANNELS 3 Xrotation Yrotation Zrotation
								JOINT Head
								{
									OFFSET 0.000000 14.068802 -1.351900
									CHANNELS 3 Xrotation Yrotation Zrotation
									End Site
									{
										OFFSET 0 0 0
									}
								}
							}
						}
						JOINT LeftShoulder_virtual
						{
							OFFSET 0.000000 0.000000 0.000000
							CHANNELS 3 Xrotation Yrotation Zrotation
							JOINT LeftShoulder
							{
								OFFSET 15.263000 10.923401 -0.547700
								CHANNELS 3 Xrotation Yrotation Zrotation
								JOINT LeftArm
								{
									OFFSET 25.438599 -2.830597 -13.032500
									CHANNELS 3 Xrotation Yrotation Zrotation
									JOINT LeftForeArm
									{
										OFFSET 29.960503 0.000000 0.000000
										CHANNELS 3 Xrotation Yrotation Zrotation
										JOINT LeftHand
										{
											OFFSET 27.849251 0.000000 0.000000
											CHANNELS 3 Xrotation Yrotation Zrotation
											End Site
											{
												OFFSET 0 0 0
											}
										}
									}
								}
							}
						}
						JOINT RightShoulder_virtual
						{
							OFFSET 0.000000 0.000000 0.000000
							CHANNELS 3 Xrotation Yrotation Zrotation
							JOINT RightShoulder
							{
								OFFSET -15.263000 10.923401 -0.547700
								CHANNELS 3 Xrotation Yrotation Zrotation
								JOINT RightArm
								{
									OFFSET -25.438599 -2.830597 -13.032500
									CHANNELS 3 Xrotation Yrotation Zrotation
									JOINT RightForeArm
									{
										OFFSET -29.960503 0.000000 0.000000
										CHANNELS 3 Xrotation Yrotation Zrotation
										JOINT RightHand
										{
											OFFSET -27.849251 0.000000 0.000000
											CHANNELS 3 Xrotation Yrotation Zrotation
											End Site
											{
												OFFSET 0 0 0
											}
										}
									}
								}
							}
						}
					}
				}
			}
		}
	}
}
MOTION
Frames: 12
Frame Time: 0.03333333
-0.992546 91.193176 2.213707 0.000000 0.000000 0.000000 -23.094741 -5.673357 -1.488115 -103.045814 -0.962482 32.040349 129.661374 -21.804450 -0.182262 -21.441917 -1.429361 8.538977 0.000000 0.000000 0.000000 -23.094741 -5.673357 -1.488115 -123.064764 7.403910 -35.152054 131.578540 23.211368 -1.435572 -9.785957 -1.808688 6.483646 0.000000 0.000000 0.000000 -23.094741 -5.673357 -1.488115 -0.000001 0.000000 0.000000 7.682408 -0.983205 -0.704551 15.374081 -1.676405 -0.551058 0.000000 0.000000 0.000000 15.374076 -1.676406 -0.551058 -2.358228 0.515285 0.060648 0.000000 0.000000 0.000000 15.374076 -1.676406 -0.551058 -0.117973 -1.799431 36.289434 -52.783217 -25.523891 -11.661695 -14.599476 -27.801836 2.187906 0.000000 0.000000 0.000000 15.374076 -1.676406 -0.551058 9.813671 24.196321 -37.946062 -46.242184 23.161322 -4.673683 -22.075475 26.224112 3.020025 0.000000 0.000000 0.000000 
-1.025906 90.908150 2.266693 0.000000 0.000000 0.000000 -22.810175 -5.651366 -1.484030 -103.672935 -1.279670 31.770413 130.016804 -21.644268 -0.188344 -21.721958 -1.331123 8.311063 0.000000 0.000000 0.000000 -22.810175 -5.651366 -1.484030 -123.469193 7.681398 -34.665918 131.773118 23.307665 -1.408021 -10.282606 -1.965580 6.874179 0.000000 0.000000 0.000000 -22.810175 -5.651366 -1.484030 0.000001 0.000000 0.000000 7.631961 -0.957433 -0.675697 15.273329 -1.606445 -0.492266 0.000000 0.000000 0.000000 15.273333 -1.606443 -0.492266 -2.949435 0.536537 0.065282 0.000000 0.000000 0.000000 15.273333 -1.606443 -0.492266 -0.463119 -1.070546 36.646110 -52.830864 -25.294839 -12.145897 -14.734620 -28.465356 2.458224 0.000000 0.000000 0.000000 15.273333 -1.606443 -0.492266 9.574057 23.264850 -38.203444 -46.458165 23.286034 -4.045070 -21.711689 26.550164 2.475558 0.000000 0.000000 0.000000 
-1.051380 90.711639 2.292843 0.000000 0.000000 0.000000 -22.412402 -5.613458 -1.497277 -104.445484 -1.493843 31.436246 130.254740 -21.317814 -0.174948 -21.735296 -1.248284 8.176308 0.000000 0.000000 0.000000 -22.412402 -5.613458 -1.497277 -123.931651 7.836343 -34.130496 131.852991 23.221815 -1.382516 -10.566637 -2.088167 7.146721 0.000000 0.000000 0.000000 -22.412402 -5.613458 -1.497277 0.000003 0.000000 0.000000 7.515034 -0.931605 -0.636081 15.039634 -1.534572 -0.418302 0.000000 0.000000 0.000000 15.039639 -1.534572 -0.418302 -3.549975 0.559651 0.090068 0.000000 0.000000 0.000000 15.039639 -1.534572 -0.418302 -0.794090 -0.411284 37.037640 -53.107361 -25.119648 -13.105111 -14.758150 -28.996680 2.732947 0.000000 0.000000 0.000000 15.039639 -1.534572 -0.418302 9.273473 22.311028 -38.387897 -46.870899 23.501726 -2.942165 -21.212578 27.007449 1.920320 0.000000 0.000000 0.000000 
-1.072605 90.586166 2.301676 0.000000 0.000000 0.000000 -21.941879 -5.573023 -1.528298 -105.340184 -1.640341 31.062065 130.392765 -20.852892 -0.143594 -21.468695 -1.167715 8.095355 0.000000 0.000000 0.000000 -21.941879 -5.573023 -1.528298 -124.460786 7.881500 -33.552553 131.844644 22.963354 -1.369045 -10.624817 -2.176086 7.336622 0.000000 0.000000 0.000000 -21.941879 -5.573023 -1.528298 -0.000001 0.000000 0.000000 7.350628 -0.906632 -0.587298 14.710908 -1.463376 -0.331661 0.000000 0.000000 0.000000 14.710901 -1.463381 -0.331661 -4.143644 0.583224 0.126133 0.000000 0.000000 0.000000 14.710901 -1.463381 -0.331661 -1.099286 0.158972 37.454203 -53.530484 -24.931218 -14.399217 -14.700100 -29.457896 3.027303 0.000000 0.000000 0.000000 14.710901 -1.463381 -0.331661 8.958986 21.389431 -38.537143 -47.400833 23.753704 -1.536018 -20.640014 27.551675 1.343287 0.000000 0.000000 0.000000 
-1.090219 90.557396 2.290447 0.000000 0.000000 0.000000 -21.402654 -5.537867 -1.586894 -106.377191 -1.711046 30.649665 130.388339 -20.210117 -0.087265 -20.779566 -1.081754 8.069646 0.000000 0.000000 0.000000 -21.402654 -5.537867 -1.586894 -125.074124 7.769493 -32.920993 131.719365 22.461738 -1.380079 -10.339065 -2.213171 7.428906 0.000000 0.000000 0.000000 -21.402654 -5.537867 -1.586894 0.000000 0.000000 0.000000 7.132185 -0.883235 -0.526429 14.274076 -1.394823 -0.228714 0.000000 0.000000 0.000000 14.274073 -1.394825 -0.228715 -4.714208 0.605352 0.173150 0.000000 0.000000 0.000000 14.274073 -1.394825 -0.228715 -1.351301 0.585397 37.896560 -54.106303 -24.664006 -16.084366 -14.545351 -29.884185 3.360776 0.000000 0.000000 0.000000 14.274073 -1.394825 -0.228715 8.659215 20.554170 -38.660756 -48.041119 24.002540 0.198535 -20.014599 28.209931 0.737833 0.000000 0.000000 0.000000 
-1.105482 90.650276 2.256073 0.000000 0.000000 0.000000 -20.837594 -5.517078 -1.683962 -107.516514 -1.706133 30.216350 130.192913 -19.380810 -0.002894 -19.542500 -0.982412 8.094158 0.000000 0.000000 0.000000 -20.837594 -5.517078 -1.683962 -125.736379 7.460515 -32.241788 131.447455 21.672708 -1.426375 -9.609595 -2.186655 7.418297 0.000000 0.000000 0.000000 -20.837594 -5.517078 -1.683962 0.000001 -0.000001 0.000000 6.868104 -0.861779 -0.451791 13.745945 -1.331323 -0.107901 0.000000 0.000000 0.000000 13.745955 -1.331326 -0.107901 -5.240297 0.623140 0.228175 0.000000 0.000000 0.000000 13.745955 -1.331326 -0.107901 -1.519110 0.814443 38.353527 -54.804314 -24.244378 -18.141035 -14.300238 -30.314975 3.746222 0.000000 0.000000 0.000000 13.745955 -1.331326 -0.107901 8.410113 19.867603 -38.774052 -48.754621 24.200354 2.219744 -19.380354 28.971569 0.101951 0.000000 0.000000 0.000000 
-1.119236 90.889336 2.193298 0.000000 0.000000 0.000000 -20.335930 -5.517869 -1.830515 -108.641986 -1.632014 29.794255 129.752885 -18.391410 0.107300 -17.664310 -0.863585 8.159615 0.000000 0.000000 0.000000 -20.335930 -5.517869 -1.830515 -126.328570 6.932164 -31.545160 130.996335 20.599832 -1.511430 -8.388371 -2.091420 7.308098 0.000000 0.000000 0.000000 -20.335930 -5.517869 -1.830515 0.000001 0.000000 0.000000 6.585667 -0.841713 -0.363365 13.181099 -1.275150 0.029298 0.000000 0.000000 0.000000 13.181097 -1.275146 0.029298 -5.697957 0.633105 0.286249 0.000000 0.000000 0.000000 13.181097 -1.275146 0.029298 -1.573339 0.806856 38.796875 -55.559870 -23.610608 -20.463433 -13.992641 -30.797022 4.188664 0.000000 0.000000 0.000000 13.181097 -1.275146 0.029298 8.245026 19.384437 -38.889881 -49.481237 24.303611 4.418808 -18.794237 29.794122 -0.558961 0.000000 0.000000 0.000000 
-1.131047 91.300949 2.091667 0.000000 0.000000 0.000000 -20.027469 -5.541991 -2.034974 -109.525990 -1.491124 29.430373 129.013531 -17.317125 0.233767 -15.169375 -0.728850 8.258628 0.000000 0.000000 0.000000 -20.027469 -5.541991 -2.034974 -126.645504 6.184314 -30.883042 130.327878 19.293920 -1.627963 -6.687842 -1.931137 7.104225 0.000000 0.000000 0.000000 -20.027469 -5.541991 -2.034974 0.000000 0.000000 0.000000 6.330571 -0.821839 -0.264143 12.670812 -1.227655 0.178072 0.000000 0.000000 0.000000 12.670812 -1.227647 0.178072 -6.064906 0.632072 0.341580 0.000000 0.000000 0.000000 12.670812 -1.227647 0.178072 -1.493592 0.549601 39.179157 -56.292841 -22.733540 -22.876885 -13.662041 -31.392690 4.689188 0.000000 0.000000 0.000000 12.670812 -1.227647 0.178072 8.183099 19.134809 -39.008720 -50.156883 24.287540 6.639477 -18.305901 30.626182 -1.235000 0.000000 0.000000 0.000000 
-1.136588 91.913666 1.931890 0.000000 0.000000 0.000000 -20.062397 -5.583808 -2.302251 -109.873251 -1.272712 29.172889 127.924430 -16.249150 0.363308 -12.180433 -0.588505 8.384476 0.000000 0.000000 0.000000 -20.062397 -5.583808 -2.302251 -126.388908 5.241003 -30.322273 129.396459 17.875483 -1.756090 -4.635993 -1.724537 6.822406 0.000000 0.000000 0.000000 -20.062397 -5.583808 -2.302251 0.000000 0.000000 0.000000 6.160894 -0.800319 -0.159120 12.331302 -1.188794 0.330882 0.000000 0.000000 0.000000 12.331292 -1.188789 0.330881 -6.324307 0.618275 0.388923 0.000000 0.000000 0.000000 12.331292 -1.188789 0.330881 -1.275761 0.062681 39.435129 -56.937007 -21.631105 -25.178331 -13.343855 -32.183821 5.250930 0.000000 0.000000 0.000000 12.331292 -1.188789 0.330881 8.219827 19.112903 -39.109889 -50.738607 24.159322 8.711657 -17.936835 31.430813 -1.919367 0.000000 0.000000 0.000000 
-1.128096 92.756012 1.686359 0.000000 0.000000 0.000000 -20.580572 -5.630414 -2.632787 -109.395117 -0.951635 29.055932 126.443740 -15.259898 0.483669 -8.861834 -0.452244 8.527716 0.000000 0.000000 0.000000 -20.580572 -5.630414 -2.632787 -125.253908 4.137280 -29.917847 128.152408 16.477065 -1.870532 -2.399249 -1.498581 6.483632 0.000000 0.000000 0.000000 -20.580572 -5.630414 -2.632787 0.000000 0.000000 0.000000 6.136871 -0.775367 -0.054182 12.283027 -1.157027 0.478809 0.000000 0.000000 0.000000 12.283025 -1.157027 0.478809 -6.467460 0.592257 0.424789 0.000000 0.000000 0.000000 12.283025 -1.157027 0.478809 -0.936914 -0.601399 39.487789 -57.468283 -20.372175 -27.184751 -13.055516 -33.259770 5.883156 0.000000 0.000000 0.000000 12.283025 -1.157027 0.478809 8.323242 19.276518 -39.147748 -51.224769 23.963963 10.487334 -17.673809 32.196354 -2.612442 0.000000 0.000000 0.000000 
-1.043649 93.813454 1.388039 0.000000 0.000000 0.000000 -21.678660 -5.661560 -3.013534 -107.945157 -0.426390 29.064583 124.694365 -14.307058 0.592005 -5.488369 -0.346423 8.753758 0.000000 0.000000 0.000000 -21.678660 -5.661560 -3.013534 -123.079025 3.117688 -29.703895 126.638537 15.324047 -1.930040 -0.091499 -1.294896 6.212101 0.000000 0.000000 0.000000 -21.678660 -5.661560 -3.013534 -0.000001 0.000000 0.000000 6.308739 -0.749609 0.036858 12.626646 -1.129671 0.613264 0.000000 0.000000 0.000000 12.626650 -1.129671 0.613263 -6.494661 0.557097 0.448011 0.000000 0.000000 0.000000 12.626650 -1.129671 0.613263 -0.516016 -1.365469 39.257882 -57.919348 -19.070482 -28.772367 -12.790882 -34.687853 6.600261 0.000000 0.000000 0.000000 12.626650 -1.129671 0.613263 8.437772 19.559375 -39.055291 -51.660733 23.779804 11.868921 -17.479994 32.931074 -3.320785 0.000000 0.000000 0.000000 
-0.911398 95.130333 0.965857 0.000000 0.000000 0.000000 -23.385972 -5.662785 -3.442089 -105.356194 0.299547 29.197440 122.549904 -13.455868 0.686660 -2.150652 -0.247423 9.002089 0.000000 0.000000 0.000000 -23.385972 -5.662785 -3.442089 -119.694339 2.014699 -29.663033 124.750714 14.399762 -1.945334 2.123166 -1.129061 5.947130 0.000000 0.000000 0.000000 -23.385972 -5.662785 -3.442089 0.000002 -0.000001 0.000000 6.706314 -0.719459 0.115968 13.421601 -1.103574 0.727601 0.000000 0.000000 0.000000 13.421603 -1.103574 0.727602 -6.414018 0.517564 0.459548 0.000000 0.000000 0.000000 13.421603 -1.103574 0.727602 -0.067579 -2.140555 38.675820 -58.374567 -17.870541 -29.898023 -12.523735 -36.479993 7.417795 0.000000 0.000000 0.000000 13.421603 -1.103574 0.727602 8.498342 19.893201 -38.755593 -52.125282 23.703712 12.819790 -17.318974 33.647523 -4.049028 0.000000 0.000000 0.000000 
